<svg width="32" height="32" viewBox="0 0 24 24" stroke="#000000" fill="none" stroke-linejoin="round" stroke-width="1.125" stroke-linecap="round" xmlns="http://www.w3.org/2000/svg"><path d="M8.49961 12.5L17.9282 4.27944C18.4315 3.8406 19.1887 3.86648 19.6609 4.33868C20.1331 4.81087 20.159 5.56808 19.7202 6.07141L11.4996 15.5M3.04321 19.4602L4.6632 17.846C5.07764 17.4331 5.39964 16.9368 5.6079 16.3901L5.78441 15.9267C6.17988 14.8885 7.37692 14.4084 8.38019 14.8856C8.76311 15.0677 9.07423 15.3725 9.26417 15.7516L9.29226 15.8077C9.71064 16.6427 9.52279 17.6541 8.83247 18.2832L8.33924 18.7327C7.55309 19.4491 6.56588 19.9068 5.51113 20.0438L3.46054 20.3102C2.98677 20.3717 2.70478 19.7974 3.04321 19.4602Z"></path></svg>